<svg width="500" height="500" viewBox="0 0 500 500" fill="none" xmlns="http://www.w3.org/2000/svg">
<path d="M247.346 216.247C249.108 216.023 250.891 216.023 252.653 216.247L370.064 231.203C390.317 233.783 395.35 260.821 377.383 270.516L368.959 275.061C365.896 276.714 362.469 277.58 358.987 277.58H141.013C137.531 277.58 134.104 276.714 131.04 275.061L122.616 270.516C104.649 260.821 109.683 233.783 129.935 231.203L247.346 216.247Z" fill="#1A1C1E"/>
<path d="M246.313 125.657C248.752 125.223 251.248 125.223 253.687 125.657L334.748 140.113C352.79 143.331 358.342 166.497 343.72 177.543L337.255 182.427C333.609 185.181 329.165 186.671 324.596 186.671H175.404C170.835 186.671 166.391 185.181 162.745 182.427L156.281 177.543C141.658 166.497 147.21 143.331 165.252 140.113L246.313 125.657Z" fill="#1A1C1E"/>
<path d="M247.93 307.023C249.307 306.887 250.694 306.887 252.07 307.023L405.253 322.2C426.94 324.348 431.404 354.028 411.309 362.461L400.845 366.853C398.272 367.933 395.509 368.489 392.718 368.489H107.282C104.491 368.489 101.728 367.933 99.1551 366.853L88.6905 362.461C68.596 354.028 73.0605 324.348 94.7468 322.2L247.93 307.023Z" fill="#1A1C1E"/>
</svg>
