<svg width="500" height="500" viewBox="0 0 500 500" fill="none" xmlns="http://www.w3.org/2000/svg">
<rect width="500" height="500" rx="100" fill="#1A1C1E"/>
<path d="M224.465 382.46C224.465 392.763 222.048 401.649 217.214 409.12C212.38 416.542 206.374 421.962 199.196 425.38C191.97 428.749 184.157 430.434 175.759 430.434C159.646 430.434 146.73 425.136 137.014 414.54C128.518 405.263 124.27 394.521 124.27 382.313C124.27 375.136 125.393 368.129 127.639 361.293C129.836 354.408 130.983 350.453 131.081 349.428C141.579 347.719 149.318 346.62 154.299 346.132C155.275 348.036 155.52 349.696 155.031 351.112C138.234 356.19 129.836 367.128 129.836 383.925C129.836 392.665 134.279 400.648 143.166 407.875C146.633 410.707 150.881 412.904 155.91 414.467C160.939 416.029 166.604 416.811 172.902 416.811C180.617 416.811 187.819 415.614 194.509 413.222C201.198 410.829 206.862 406.972 211.501 401.649C216.091 396.327 218.386 389.979 218.386 382.606C218.386 375.624 217.116 369.398 214.577 363.93C211.989 358.461 207.79 353.09 201.979 347.816C201.979 346.303 202.736 345.155 204.25 344.374C217.727 354.677 224.465 367.372 224.465 382.46ZM129.396 289.369C129.396 292.982 130.275 296.498 132.033 299.916C133.791 303.285 136.379 306.435 139.797 309.364C143.166 312.245 147.829 314.589 153.786 316.396C159.743 318.202 166.457 319.105 173.928 319.105C187.746 319.105 198.781 315.614 207.033 308.632C215.285 301.601 219.411 293.227 219.411 283.51C219.411 274.721 215.529 267.543 207.766 261.977C200.002 256.361 189.577 253.554 176.491 253.554C161.794 253.554 150.271 256.947 141.921 263.734C133.571 270.521 129.396 279.066 129.396 289.369ZM173.635 239.125C186.135 239.125 196.779 242.226 205.568 248.427C211.574 252.626 216.237 257.997 219.558 264.54C222.829 271.034 224.465 278.358 224.465 286.513C224.465 299.696 220.07 310.829 211.281 319.911C202.492 328.944 190.896 333.461 176.491 333.461C163.259 333.461 151.955 330.043 142.58 323.207C136.818 319.008 132.326 313.832 129.104 307.68C125.881 301.479 124.27 294.716 124.27 287.392C124.27 273.476 128.737 261.952 137.673 252.821C146.56 243.69 158.547 239.125 173.635 239.125ZM223 211.659C223.098 219.765 223.195 226.259 223.293 231.142C222.902 231.63 222.121 231.874 220.949 231.874C219.729 231.874 218.874 231.63 218.386 231.142C218.19 225.526 217.36 221.962 215.896 220.448C214.431 218.886 210.695 218.104 204.689 218.104L144.558 218.104C138.552 218.104 134.841 218.886 133.425 220.448C131.96 221.962 131.13 225.526 130.935 231.142C130.544 231.63 129.738 231.874 128.518 231.874C127.297 231.874 126.442 231.63 125.954 231.142C126.149 221.132 126.247 214.687 126.247 211.806C126.247 208.583 126.149 202.089 125.954 192.323C126.442 191.933 127.297 191.737 128.518 191.737C129.689 191.737 130.495 191.933 130.935 192.323C131.13 197.938 131.96 201.527 133.425 203.09C134.841 204.604 138.552 205.36 144.558 205.36L209.67 205.36C211.965 205.36 213.796 204.75 215.163 203.529C216.481 202.26 217.141 200.526 217.141 198.329L217.141 187.343C217.141 180.019 215.432 174.55 212.014 170.937C208.547 167.274 203.713 164.589 197.512 162.88C197.219 161.171 197.463 159.535 198.244 157.973C206.936 158.949 215.285 160.243 223.293 161.854C223.098 171.083 223 177.04 223 179.726L223 211.659ZM374.465 382.46C374.465 392.763 372.048 401.649 367.214 409.12C362.38 416.542 356.374 421.962 349.196 425.38C341.97 428.749 334.157 430.434 325.759 430.434C309.646 430.434 296.73 425.136 287.014 414.54C278.518 405.263 274.27 394.521 274.27 382.313C274.27 375.136 275.393 368.129 277.639 361.293C279.836 354.408 280.983 350.453 281.081 349.428C291.579 347.719 299.318 346.62 304.299 346.132C305.275 348.036 305.52 349.696 305.031 351.112C288.234 356.19 279.836 367.128 279.836 383.925C279.836 392.665 284.279 400.648 293.166 407.875C296.633 410.707 300.881 412.904 305.91 414.467C310.939 416.029 316.604 416.811 322.902 416.811C330.617 416.811 337.819 415.614 344.509 413.222C351.198 410.829 356.862 406.972 361.501 401.649C366.091 396.327 368.386 389.979 368.386 382.606C368.386 375.624 367.116 369.398 364.577 363.93C361.989 358.461 357.79 353.09 351.979 347.816C351.979 346.303 352.736 345.155 354.25 344.374C367.727 354.677 374.465 367.372 374.465 382.46ZM279.396 289.369C279.396 292.982 280.275 296.498 282.033 299.916C283.791 303.285 286.379 306.435 289.797 309.364C293.166 312.245 297.829 314.589 303.786 316.396C309.743 318.202 316.457 319.105 323.928 319.105C337.746 319.105 348.781 315.614 357.033 308.632C365.285 301.601 369.411 293.227 369.411 283.51C369.411 274.721 365.529 267.543 357.766 261.977C350.002 256.361 339.577 253.554 326.491 253.554C311.794 253.554 300.271 256.947 291.921 263.734C283.571 270.521 279.396 279.066 279.396 289.369ZM323.635 239.125C336.135 239.125 346.779 242.226 355.568 248.427C361.574 252.626 366.237 257.997 369.558 264.54C372.829 271.034 374.465 278.358 374.465 286.513C374.465 299.696 370.07 310.829 361.281 319.911C352.492 328.944 340.896 333.461 326.491 333.461C313.259 333.461 301.955 330.043 292.58 323.207C286.818 319.008 282.326 313.832 279.104 307.68C275.881 301.479 274.27 294.716 274.27 287.392C274.27 273.476 278.737 261.952 287.673 252.821C296.56 243.69 308.547 239.125 323.635 239.125ZM355.568 134.315L292.873 138.124L292.873 138.49L372.268 172.182C373.391 172.768 373.928 173.476 373.879 174.306C373.879 175.429 373.342 176.186 372.268 176.576L294.411 207.631L294.411 207.924L354.543 213.637C359.23 214.027 362.6 213.637 364.65 212.465C366.701 211.244 367.946 208.314 368.386 203.676C368.874 203.285 369.729 203.09 370.949 203.09C372.121 203.09 372.902 203.285 373.293 203.676C373.098 209.682 373 214.394 373 217.812C373 220.399 373.098 224.696 373.293 230.702C372.902 231.093 372.121 231.288 370.949 231.288C369.729 231.288 368.874 231.093 368.386 230.702C368.044 226.601 366.896 223.817 364.943 222.353C362.99 220.888 359.621 219.936 354.836 219.496L293.02 213.49C287.502 213.002 284.182 213.246 283.059 214.223C281.936 215.199 281.228 218.349 280.935 223.671C280.544 224.159 279.738 224.403 278.518 224.403C277.297 224.403 276.442 224.159 275.954 223.671L276.247 201.918L352.419 171.156C353.737 170.57 354.396 170.18 354.396 169.984C354.396 169.691 353.688 169.228 352.272 168.593L276.247 136.806L275.954 117.177C276.442 116.688 277.297 116.444 278.518 116.444C279.689 116.396 280.495 116.64 280.935 117.177C281.228 122.108 282.033 125.136 283.352 126.259C284.67 127.382 287.453 127.772 291.701 127.431L354.836 122.963C357.229 122.816 359.011 122.694 360.183 122.597C361.354 122.45 362.551 122.206 363.771 121.864C364.943 121.474 365.749 121.107 366.188 120.766C366.579 120.375 366.97 119.716 367.36 118.788C367.751 117.812 367.995 116.835 368.093 115.858C368.19 114.833 368.288 113.368 368.386 111.464C368.874 110.976 369.729 110.731 370.949 110.731C372.121 110.731 372.902 110.976 373.293 111.464C373.098 118.056 373 123.5 373 127.797C373 129.115 373.098 134.462 373.293 143.837C372.902 144.325 372.121 144.569 370.949 144.569C369.729 144.569 368.874 144.325 368.386 143.837C368.288 141.884 368.215 140.492 368.166 139.662C368.068 138.832 367.849 137.929 367.507 136.952C367.165 135.976 366.799 135.365 366.408 135.121C366.018 134.828 365.285 134.56 364.211 134.315C363.088 134.071 361.94 133.974 360.769 134.022C359.597 134.071 357.863 134.169 355.568 134.315Z" fill="#E3E2E6"/>
<path d="M173.625 101.78C174.207 101.73 174.793 101.73 175.375 101.78L202.705 104.148C206.995 104.519 207.788 110.459 203.745 111.942V111.942C203.3 112.105 202.831 112.189 202.357 112.189L146.643 112.189C146.169 112.189 145.7 112.105 145.255 111.942V111.942C141.212 110.459 142.005 104.519 146.295 104.148L173.625 101.78Z" fill="#E3E2E6"/>
<path d="M173.316 86.3936C174.102 86.2982 174.898 86.2982 175.684 86.3936L194.418 88.6653C198.38 89.1458 199.33 94.463 195.78 96.2867V96.2867C195.208 96.5807 194.574 96.7341 193.93 96.7341L155.07 96.7341C154.426 96.7341 153.792 96.5807 153.22 96.2867V96.2867C149.67 94.463 150.62 89.1458 154.583 88.6653L173.316 86.3936Z" fill="#E3E2E6"/>
<path d="M174.5 117.159L210.944 119.614C215.439 119.917 216.109 126.253 211.777 127.489V127.489C211.419 127.591 211.047 127.643 210.674 127.643L138.326 127.643C137.953 127.643 137.581 127.591 137.223 127.489V127.489C132.891 126.253 133.561 119.917 138.056 119.614L174.5 117.159Z" fill="#E3E2E6"/>
</svg>
