<?xml version="1.0" standalone="no"?>
<!DOCTYPE svg PUBLIC "-//W3C//DTD SVG 20010904//EN"
 "http://www.w3.org/TR/2001/REC-SVG-20010904/DTD/svg10.dtd">
<svg version="1.0" xmlns="http://www.w3.org/2000/svg"
 width="700.000000pt" height="700.000000pt" viewBox="0 0 700.000000 700.000000"
 preserveAspectRatio="xMidYMid meet">
<metadata>
Created by potrace 1.14, written by Peter Selinger 2001-2017
</metadata>
<g transform="translate(0.000000,700.000000) scale(0.100000,-0.100000)"
fill="#000000" stroke="none">
<path d="M3468 5245 c-2 -2 -23 -6 -48 -10 -25 -3 -52 -8 -60 -10 -8 -2 -28
-6 -45 -9 -35 -6 -201 -34 -230 -40 -40 -7 -100 -18 -120 -22 -54 -9 -373 -66
-390 -68 -178 -31 -315 -61 -346 -77 -153 -77 -203 -282 -106 -427 29 -43 162
-146 224 -173 48 -22 49 -22 1113 -23 586 0 1091 2 1123 6 69 9 102 25 187 91
82 63 108 91 132 145 62 138 2 314 -130 381 -43 22 -43 22 -207 51 -60 11
-119 22 -130 24 -19 4 -84 14 -135 22 -14 2 -45 9 -70 14 -43 9 -252 47 -315
57 -41 6 -60 9 -225 39 -137 25 -216 35 -222 29z"/>
<path d="M3395 3964 c-49 -7 -115 -16 -145 -19 -30 -3 -66 -8 -80 -10 -14 -2
-83 -11 -155 -20 -71 -9 -141 -17 -155 -20 -14 -2 -46 -6 -72 -9 -27 -3 -69
-9 -95 -12 -27 -3 -59 -7 -73 -9 -14 -2 -52 -7 -85 -11 -33 -3 -68 -8 -79 -10
-10 -2 -44 -6 -75 -9 -31 -4 -66 -8 -77 -10 -12 -2 -48 -7 -80 -10 -33 -4 -67
-9 -76 -11 -9 -1 -48 -6 -85 -9 -37 -4 -70 -9 -73 -10 -3 -2 -35 -7 -70 -10
-108 -11 -119 -13 -171 -30 -62 -21 -131 -86 -160 -151 -16 -36 -22 -69 -22
-124 -1 -152 76 -236 303 -334 44 -19 85 -20 1615 -21 1691 -2 1606 -4 1711
51 103 54 150 87 180 127 86 115 77 276 -20 381 -56 61 -120 86 -266 101 -30
3 -66 8 -80 10 -14 2 -47 7 -75 10 -27 3 -61 8 -75 10 -14 2 -47 6 -75 9 -52
6 -93 12 -157 21 -20 2 -61 7 -90 10 -29 3 -64 7 -77 10 -13 2 -49 7 -80 10
-31 3 -65 8 -76 10 -11 2 -40 6 -65 9 -25 3 -101 13 -170 21 -69 9 -145 18
-170 21 -25 2 -54 7 -65 9 -11 2 -47 7 -80 10 -33 3 -71 8 -85 10 -32 6 -116
16 -155 19 -16 1 -70 -4 -120 -10z"/>
<path d="M3509 2706 c-2 -2 -42 -6 -89 -10 -47 -4 -99 -8 -116 -11 -17 -2 -64
-6 -105 -10 -41 -3 -85 -8 -99 -10 -14 -2 -59 -6 -100 -10 -41 -4 -86 -8 -100
-10 -14 -2 -56 -7 -95 -10 -92 -8 -139 -13 -200 -20 -27 -3 -77 -7 -110 -10
-33 -3 -80 -8 -105 -10 -101 -11 -128 -14 -190 -20 -36 -3 -81 -8 -100 -10
-19 -3 -64 -7 -100 -10 -36 -3 -105 -10 -155 -15 -91 -10 -162 -17 -270 -25
-33 -3 -73 -7 -90 -10 -16 -2 -61 -7 -100 -10 -129 -12 -180 -31 -238 -91
-120 -123 -111 -325 18 -432 21 -16 90 -52 154 -79 l116 -48 2054 -2 2054 -2
71 26 c116 42 209 89 244 126 106 110 103 302 -6 412 -66 67 -104 78 -337 100
-66 6 -123 12 -200 20 -79 9 -125 13 -195 20 -36 3 -85 8 -110 11 -25 3 -70 7
-100 9 -30 2 -77 7 -105 10 -27 3 -66 8 -85 10 -19 3 -66 7 -105 10 -38 4 -83
8 -100 9 -16 2 -68 7 -115 11 -47 4 -87 9 -90 10 -3 2 -46 7 -95 10 -50 4
-103 8 -118 10 -15 2 -60 6 -100 10 -40 3 -83 8 -97 10 -14 2 -59 7 -100 10
-41 3 -86 8 -100 10 -14 2 -59 7 -100 10 -41 4 -78 9 -81 11 -3 2 -8 2 -10 0z"/>
</g>
</svg>
